<svg width="243" height="115" viewBox="0 0 243 115" fill="none" xmlns="http://www.w3.org/2000/svg">
<path d="M135.221 52.1248C143.703 44.9061 145.699 56.2498 176.635 83.578C200.484 104.646 228.411 112.402 240.679 113.861L0.0395966 114C15.0209 113.983 44.4162 104.199 53.3897 99.0468C62.3711 93.8906 73.8474 93.3749 84.8247 91.8281C95.8021 90.2812 107.278 69.6561 110.272 64.4999C113.266 59.3436 115.262 65.5311 120.252 69.6561C125.241 73.7811 126.738 59.3436 135.221 52.1248Z" fill="url(#paint0_radial_3925_20255)"/>
<path d="M242 114C241.583 113.963 241.142 113.916 240.679 113.861M240.679 113.861C228.411 112.402 200.484 104.646 176.635 83.578C145.699 56.2498 143.703 44.9061 135.221 52.1248C126.738 59.3436 125.241 73.7811 120.252 69.6561C115.262 65.5311 113.266 59.3436 110.272 64.4999C107.278 69.6561 95.8021 90.2812 84.8247 91.8281C73.8474 93.3749 62.3711 93.8906 53.3897 99.0468C44.4082 104.203 14.9691 114 -2.86102e-06 114L240.679 113.861Z" stroke="#67EAB3" stroke-opacity="0.6"/>
<g filter="url(#filter0_d_3925_20255)">
<path d="M149.599 20.9224C140.854 18.9265 136.805 20.6289 135.875 21.7295L137.311 35.3776C138.481 34.1058 143.742 31.0778 151.594 32.9562C159.446 34.8346 163.803 33.2497 165 32.2224L162.447 20.9224C161.808 21.754 158.345 22.9182 149.599 20.9224Z" fill="#EFEFEF"/>
<rect x="0.218561" y="0.181497" width="0.398719" height="29.6608" transform="matrix(0.996416 -0.0845939 0.0998994 0.994998 134.983 20.1102)" fill="white" stroke="white" stroke-width="0.398719"/>
</g>
<defs>
<filter id="filter0_d_3925_20255" x="115" y="0" width="70" height="70" filterUnits="userSpaceOnUse" color-interpolation-filters="sRGB">
<feFlood flood-opacity="0" result="BackgroundImageFix"/>
<feColorMatrix in="SourceAlpha" type="matrix" values="0 0 0 0 0 0 0 0 0 0 0 0 0 0 0 0 0 0 127 0" result="hardAlpha"/>
<feOffset/>
<feGaussianBlur stdDeviation="10"/>
<feComposite in2="hardAlpha" operator="out"/>
<feColorMatrix type="matrix" values="0 0 0 0 0.405206 0 0 0 0 0.917448 0 0 0 0 0.702306 0 0 0 0.6 0"/>
<feBlend mode="normal" in2="BackgroundImageFix" result="effect1_dropShadow_3925_20255"/>
<feBlend mode="normal" in="SourceGraphic" in2="effect1_dropShadow_3925_20255" result="shape"/>
</filter>
<radialGradient id="paint0_radial_3925_20255" cx="0" cy="0" r="1" gradientUnits="userSpaceOnUse" gradientTransform="translate(-39.9446 141.172) rotate(-20.6004) scale(580.499 1299.25)">
<stop stop-color="#9891AD"/>
<stop offset="0.221842" stop-color="#538096"/>
<stop offset="0.376784" stop-color="#3C566E"/>
<stop offset="0.943038" stop-color="#131529"/>
</radialGradient>
</defs>
</svg>
