<svg width="54" height="58" viewBox="0 0 54 58" fill="none" xmlns="http://www.w3.org/2000/svg">
<path d="M21.75 21C21.75 18.1005 24.1005 15.75 27 15.75C29.8995 15.75 32.25 18.1005 32.25 21C32.25 23.8995 29.8995 26.25 27 26.25C24.1005 26.25 21.75 23.8995 21.75 21Z" fill="#384151"/>
<path fill-rule="evenodd" clip-rule="evenodd" d="M6.00001 21C6.00001 9.40202 15.402 0 27 0C38.598 0 48 9.40202 48 21C48 25.1166 46.8155 28.9565 44.7688 32.1975L52.9486 46.3654C53.3902 47.1303 53.3435 48.0829 52.829 48.8009C52.3145 49.5189 51.4276 49.8694 50.5612 49.6972L42.7129 48.1366L40.1402 55.7138C39.8562 56.5501 39.1091 57.143 38.2301 57.2295C37.3511 57.3161 36.5027 56.8803 36.0611 56.1154L27.9006 41.981C27.602 41.9936 27.3018 42 27 42C26.6983 42 26.398 41.9936 26.0994 41.981L17.9389 56.1154C17.4977 56.8796 16.6506 57.3153 15.7724 57.2298C14.8941 57.1443 14.1469 56.5533 13.8614 55.7184L11.2756 48.1566L3.43401 49.6981C2.56819 49.8683 1.6828 49.5167 1.16963 48.7989C0.656463 48.0811 0.610252 47.1296 1.05145 46.3654L9.23124 32.1976C7.1845 28.9565 6.00001 25.1166 6.00001 21ZM12.2578 35.9555C14.7545 38.4168 17.8646 40.2577 21.3381 41.2279L16.5174 49.5776L14.898 44.842C14.5339 43.7772 13.4392 43.1452 12.335 43.3622L7.4241 44.3276L12.2578 35.9555ZM32.662 41.2279L37.4755 49.5652L39.0861 44.8217C39.4491 43.7526 40.5481 43.1181 41.6554 43.3383L46.5688 44.3152L41.7423 35.9555C39.2455 38.4168 36.1354 40.2577 32.662 41.2279ZM27 11.25C21.6152 11.25 17.25 15.6152 17.25 21C17.25 26.3848 21.6152 30.75 27 30.75C32.3848 30.75 36.75 26.3848 36.75 21C36.75 15.6152 32.3848 11.25 27 11.25Z" fill="#384151"/>
</svg>
