<svg xmlns="http://www.w3.org/2000/svg" width="30" height="31" viewBox="0 0 30 31" fill="none">
  <path d="M22.5005 23.8854C22.5005 21.8607 21.0358 19.2499 18.7505 19.25H11.2505C8.96514 19.2499 7.50049 21.8607 7.50049 23.8854M3.75049 15.5C3.75049 9.2868 8.78728 4.25 15.0005 4.25C21.2137 4.25 26.2505 9.2868 26.2505 15.5C26.2505 21.7132 21.2137 26.75 15.0005 26.75C8.78728 26.75 3.75049 21.7132 3.75049 15.5ZM18.7505 11.75C18.7505 13.8211 17.0716 15.5 15.0005 15.5C12.9294 15.5 11.2505 13.8211 11.2505 11.75C11.2505 9.67893 12.9294 8 15.0005 8C17.0716 8 18.7505 9.67893 18.7505 11.75Z" stroke-width="2" stroke="#ECECEC" strokeWidth="2"/>
</svg>