<svg xmlns="http://www.w3.org/2000/svg" width="31" height="30" viewBox="0 0 31 30" fill="none">
  <path d="M11.9141 21.25V22.5C11.9141 22.9925 12.0111 23.4801 12.1995 23.9351C12.388 24.39 12.6642 24.8034 13.0124 25.1517C13.3606 25.4999 13.774 25.7761 14.229 25.9645C14.684 26.153 15.1716 26.25 15.6641 26.25C16.1565 26.25 16.6442 26.153 17.0991 25.9645C17.5541 25.7761 17.9675 25.4999 18.3157 25.1517C18.6639 24.8034 18.9402 24.39 19.1286 23.9351C19.3171 23.4801 19.4141 22.9925 19.4141 22.5V21.25M23.1641 11.25C23.1641 15 25.6641 21.25 25.6641 21.25H5.66406C5.66406 21.25 8.16406 16.25 8.16406 11.25C8.16406 7.165 11.5791 3.75 15.6641 3.75C19.7491 3.75 23.1641 7.165 23.1641 11.25Z" stroke="#ECECEC" stroke-width="2" stroke-linecap="round" strokeLinejoin="round"/>
</svg>
