<svg xmlns="http://www.w3.org/2000/svg" width="32" height="32" viewBox="0 0 32 32" fill="none">
  <g filter="url(#filter0_i_2764_12607)">
    <path d="M16.0001 30.4001C23.953 30.4001 30.4001 23.953 30.4001 16.0001C30.4001 8.0472 23.953 1.6001 16.0001 1.6001C8.0472 1.6001 1.6001 8.0472 1.6001 16.0001C1.6001 23.953 8.0472 30.4001 16.0001 30.4001Z" fill="#0F3A4D"/>
  </g>
  <path d="M24.0001 11.2001L12.8001 22.4001L8 17.6001M30.4001 16.0001C30.4001 23.953 23.953 30.4001 16.0001 30.4001C8.0472 30.4001 1.6001 23.953 1.6001 16.0001C1.6001 8.0472 8.0472 1.6001 16.0001 1.6001C23.953 1.6001 30.4001 8.0472 30.4001 16.0001Z" stroke="#67EAB3" stroke-width="1.5" stroke-linecap="square" strokeLinejoin="round"/>
  <defs>
    <filter id="filter0_i_2764_12607" x="0.850098" y="0.850098" width="32.2998" height="32.2998" filterUnits="userSpaceOnUse" color-interpolation-filters="sRGB">
      <feFlood flood-opacity="0" result="BackgroundImageFix"/>
      <feBlend mode="normal" in="SourceGraphic" in2="BackgroundImageFix" result="shape"/>
      <feColorMatrix in="SourceAlpha" type="matrix" values="0 0 0 0 0 0 0 0 0 0 0 0 0 0 0 0 0 0 127 0" result="hardAlpha"/>
      <feOffset dx="2" dy="2"/>
      <feGaussianBlur stdDeviation="2"/>
      <feComposite in2="hardAlpha" operator="arithmetic" k2="-1" k3="1"/>
      <feColorMatrix type="matrix" values="0 0 0 0 0 0 0 0 0 0 0 0 0 0 0 0 0 0 0.5 0"/>
      <feBlend mode="normal" in2="shape" result="effect1_innerShadow_2764_12607"/>
    </filter>
  </defs>
</svg>