<svg width="761" height="453" viewBox="0 0 761 453" fill="none" xmlns="http://www.w3.org/2000/svg">
<path d="M380.5 0.837891C170.356 0.837891 0 171.194 0 381.338C0 397.784 1.0434 413.987 3.06763 429.883H757.932C759.957 413.987 761 397.784 761 381.338C761 171.194 590.644 0.837891 380.5 0.837891Z" fill="url(#paint0_linear_4297_8656)"/>
<path d="M14.1118 408.464C10.0065 411.32 6.84207 407.274 5.773 404.893H0L5.773 453H760.753C762.036 386.751 758.059 424.292 754.98 430.48C751.131 438.216 747.282 435.836 744.075 434.645C740.868 433.455 726.756 409.654 721.625 400.728C716.493 391.802 711.362 395.373 708.154 398.943C704.947 402.513 701.098 401.918 698.533 398.943C695.967 395.968 683.779 374.546 677.365 366.215C670.951 357.885 667.102 362.645 663.253 368.001C659.404 373.356 635.671 409.654 627.332 423.34C618.994 437.026 615.786 423.935 613.862 421.555C611.938 419.174 610.655 418.579 608.089 421.555C605.523 424.53 604.882 422.15 601.675 421.555C598.467 420.959 502.251 268.628 497.119 262.083C491.988 255.537 485.573 257.322 482.366 260.298C479.159 263.273 473.386 275.174 469.537 280.529C465.688 285.885 459.274 285.29 454.142 280.529C449.011 275.769 406.676 209.124 392.564 186.512C381.274 168.423 370.327 178.975 366.265 186.512C333.979 237.091 268.637 339.32 265.558 343.604C261.709 348.959 255.295 347.174 251.446 344.199C247.597 341.224 245.032 334.678 239.9 326.943C234.768 319.207 229.637 323.967 224.505 329.918C219.374 335.868 207.828 357.29 203.979 362.05C200.131 366.811 195.64 365.026 191.15 363.24C186.66 361.455 180.887 354.91 177.68 356.695C174.473 358.48 175.756 357.885 169.983 362.645C164.21 367.406 162.927 364.43 158.437 362.645C153.947 360.86 131.496 317.422 124.44 310.281C118.795 304.569 113.536 307.901 111.611 310.281C92.368 339.439 52.4701 398.705 46.8254 402.513C39.7695 407.274 35.9209 394.183 30.1479 394.183C24.3749 394.183 19.2433 404.893 14.1118 408.464Z" fill="#384151"/>
<g filter="url(#filter0_bd_4297_8656)">
<path d="M413.798 91.7057C387.561 85.8512 375.416 90.8447 372.623 94.0733L376.932 134.108C380.443 130.377 396.227 121.495 419.782 127.005C443.338 132.515 456.409 127.866 459.999 124.852L452.339 91.7057C450.424 94.1451 440.035 97.5602 413.798 91.7057Z" fill="#384151"/>
<rect x="0.549359" y="0.456021" width="1.39194" height="87.1949" transform="matrix(0.996572 -0.082727 0.102146 0.994769 369.955 89.3144)" fill="#384151" stroke="#384151"/>
</g>
<defs>
<filter id="filter0_bd_4297_8656" x="346" y="65" width="138" height="136" filterUnits="userSpaceOnUse" color-interpolation-filters="sRGB">
<feFlood flood-opacity="0" result="BackgroundImageFix"/>
<feGaussianBlur in="BackgroundImageFix" stdDeviation="12"/>
<feComposite in2="SourceAlpha" operator="in" result="effect1_backgroundBlur_4297_8656"/>
<feColorMatrix in="SourceAlpha" type="matrix" values="0 0 0 0 0 0 0 0 0 0 0 0 0 0 0 0 0 0 127 0" result="hardAlpha"/>
<feOffset dy="4"/>
<feGaussianBlur stdDeviation="2"/>
<feComposite in2="hardAlpha" operator="out"/>
<feColorMatrix type="matrix" values="0 0 0 0 0 0 0 0 0 0 0 0 0 0 0 0 0 0 0.25 0"/>
<feBlend mode="normal" in2="effect1_backgroundBlur_4297_8656" result="effect2_dropShadow_4297_8656"/>
<feBlend mode="normal" in="SourceGraphic" in2="effect2_dropShadow_4297_8656" result="shape"/>
</filter>
<linearGradient id="paint0_linear_4297_8656" x1="380.5" y1="0.837891" x2="380.5" y2="429.883" gradientUnits="userSpaceOnUse">
<stop stop-color="#FF5151"/>
<stop offset="1" stop-color="#FFD84C"/>
</linearGradient>
</defs>
</svg>
