<svg width="46" height="61" viewBox="0 0 46 61" fill="none" xmlns="http://www.w3.org/2000/svg">
<path fill-rule="evenodd" clip-rule="evenodd" d="M11.75 8.5C11.75 3.94365 15.4437 0.25 20 0.25H26C30.5564 0.25 34.25 3.94365 34.25 8.5V14.5C34.25 15.7426 33.2426 16.75 32 16.75H14C12.7574 16.75 11.75 15.7426 11.75 14.5V8.5ZM20 4.75C17.9289 4.75 16.25 6.42893 16.25 8.5V12.25H29.75V8.5C29.75 6.42893 28.0711 4.75 26 4.75H20Z" fill="#384151"/>
<path fill-rule="evenodd" clip-rule="evenodd" d="M6.46079 8.28631C6.84005 8.10448 7.26114 8.39388 7.26038 8.81448L7.25 14.5C7.25 18.2279 10.2721 21.25 14 21.25H32C35.7279 21.25 38.75 18.2279 38.75 14.5V8.81278C38.75 8.39265 39.1708 8.10401 39.5496 8.28563C43.1049 9.99008 45.5 13.6204 45.5 17.7564V49.2246C45.5 54.357 41.6771 58.6855 36.5841 59.3198C27.5629 60.4433 18.4371 60.4433 9.41591 59.3198C4.32294 58.6855 0.5 54.3569 0.5 49.2246V17.7564C0.5 13.6209 2.90483 9.99104 6.46079 8.28631ZM32 29.5C33.2426 29.5 34.25 30.5074 34.25 31.75C34.25 32.9926 33.2426 34 32 34H14C12.7574 34 11.75 32.9926 11.75 31.75C11.75 30.5074 12.7574 29.5 14 29.5H32ZM29 38.5C30.2426 38.5 31.25 39.5074 31.25 40.75C31.25 41.9926 30.2426 43 29 43H14C12.7574 43 11.75 41.9926 11.75 40.75C11.75 39.5074 12.7574 38.5 14 38.5H29Z" fill="#384151"/>
</svg>
