<svg width="48" height="48" viewBox="0 0 48 48" fill="none" xmlns="http://www.w3.org/2000/svg">
<g filter="url(#filter0_d_4616_15869)">
<path d="M24 36C24 36 18.5337 29.0283 16.8778 26.5263C14.0599 22.264 11.212 17.9452 11.187 17.9075L10 16.1096L17.5012 8H31.2818L38 16.2164L24 36Z" fill="url(#paint0_linear_4616_15869)"/>
<path d="M23.7868 33.1211C23.5873 33.1148 23.5025 32.9891 23.3379 32.7439C23.2581 32.6245 23.1384 32.4484 22.9938 32.2284C22.7145 31.8072 22.3055 31.1911 21.7768 30.399C20.889 29.06 19.6521 27.1929 18.106 24.8481C15.4676 20.8562 12.8042 16.8202 12.7793 16.7762L12.5 16.355L18.1559 10.2383H30.0312L35.0536 16.3865L24.1958 32.8256L24.1359 33.1337L23.7868 33.1211Z" fill="#E08A00"/>
<path d="M34.453 16.4243L29.8495 10.7979H18.3183L13.1113 16.4243C13.1113 16.4243 23.7846 32.6057 23.7946 32.5679L34.453 16.4243Z" fill="url(#paint1_radial_4616_15869)"/>
<path d="M13.1113 16.4238L20.7223 16.7067L23.7946 32.5675L13.1113 16.4238Z" fill="url(#paint2_radial_4616_15869)"/>
<path d="M34.4552 16.4238L27.1236 16.9833L23.7969 32.5675L34.4552 16.4238Z" fill="url(#paint3_radial_4616_15869)"/>
<path d="M23.7857 10.7979L20.459 16.9838H27.1223L23.7857 10.7979Z" fill="url(#paint4_radial_4616_15869)"/>
<path d="M29.8543 10.7979L27.1211 16.9838L34.4528 16.4243L29.8543 10.7979Z" fill="url(#paint5_radial_4616_15869)"/>
<path d="M13.1367 16.4238L20.4983 16.9833L23.7951 32.5675L13.1367 16.4238Z" fill="url(#paint6_radial_4616_15869)"/>
<path d="M20.4994 16.9838L13.1328 16.4745L18.3198 10.7979L20.4994 16.9838Z" fill="url(#paint7_radial_4616_15869)"/>
</g>
<defs>
<filter id="filter0_d_4616_15869" x="0" y="0" width="48" height="48" filterUnits="userSpaceOnUse" color-interpolation-filters="sRGB">
<feFlood flood-opacity="0" result="BackgroundImageFix"/>
<feColorMatrix in="SourceAlpha" type="matrix" values="0 0 0 0 0 0 0 0 0 0 0 0 0 0 0 0 0 0 127 0" result="hardAlpha"/>
<feOffset dy="2"/>
<feGaussianBlur stdDeviation="5"/>
<feComposite in2="hardAlpha" operator="out"/>
<feColorMatrix type="matrix" values="0 0 0 0 0 0 0 0 0 0 0 0 0 0 0 0 0 0 0.5 0"/>
<feBlend mode="normal" in2="BackgroundImageFix" result="effect1_dropShadow_4616_15869"/>
<feBlend mode="normal" in="SourceGraphic" in2="effect1_dropShadow_4616_15869" result="shape"/>
</filter>
<linearGradient id="paint0_linear_4616_15869" x1="24.0001" y1="35.4221" x2="24.0001" y2="8.40153" gradientUnits="userSpaceOnUse">
<stop stop-color="#E88D1E"/>
<stop offset="0.9995" stop-color="#FFC133"/>
</linearGradient>
<radialGradient id="paint1_radial_4616_15869" cx="0" cy="0" r="1" gradientUnits="userSpaceOnUse" gradientTransform="translate(23.7832 21.6822) scale(9.70749 12.2357)">
<stop stop-color="#FFEEB8"/>
<stop offset="1" stop-color="#FFBF00"/>
</radialGradient>
<radialGradient id="paint2_radial_4616_15869" cx="0" cy="0" r="1" gradientUnits="userSpaceOnUse" gradientTransform="translate(18.4532 24.4963) scale(5.89632 7.43196)">
<stop stop-color="#FFFD9E"/>
<stop offset="1"/>
</radialGradient>
<radialGradient id="paint3_radial_4616_15869" cx="0" cy="0" r="1" gradientUnits="userSpaceOnUse" gradientTransform="translate(29.1274 24.4963) scale(5.89095 7.42519)">
<stop stop-color="#FFEEB8"/>
<stop offset="1" stop-color="#FFBF00"/>
</radialGradient>
<radialGradient id="paint4_radial_4616_15869" cx="0" cy="0" r="1" gradientUnits="userSpaceOnUse" gradientTransform="translate(23.792 13.8889) scale(2.92589 3.68791)">
<stop stop-color="#FFFD9E"/>
<stop offset="1" stop-color="#FFB805"/>
</radialGradient>
<radialGradient id="paint5_radial_4616_15869" cx="0" cy="0" r="1" gradientUnits="userSpaceOnUse" gradientTransform="translate(30.789 13.8889) scale(3.11902 3.93133)">
<stop stop-color="#FFFD9E"/>
<stop offset="1" stop-color="#FFB805"/>
</radialGradient>
<radialGradient id="paint6_radial_4616_15869" cx="0" cy="0" r="1" gradientUnits="userSpaceOnUse" gradientTransform="translate(18.4648 24.4963) rotate(180) scale(5.89095 7.42519)">
<stop stop-color="#FFEEB8"/>
<stop offset="1" stop-color="#FFBF00"/>
</radialGradient>
<radialGradient id="paint7_radial_4616_15869" cx="0" cy="0" r="1" gradientUnits="userSpaceOnUse" gradientTransform="translate(16.8158 13.8888) scale(3.12931 3.94431)">
<stop stop-color="#FFFD9E"/>
<stop offset="1" stop-color="#EB9E21"/>
</radialGradient>
</defs>
</svg>
