<svg width="61" height="60" viewBox="0 0 61 60" fill="none" xmlns="http://www.w3.org/2000/svg">
<g id="facebook">
<path id="facebook_2" fill-rule="evenodd" clip-rule="evenodd" d="M0.25 30C0.25 13.4315 13.6815 0 30.25 0C46.8185 0 60.25 13.4315 60.25 30C60.25 46.5685 46.8185 60 30.25 60C13.6815 60 0.25 46.5685 0.25 30ZM30.25 15C38.5 15 45.25 21.75 45.25 30C45.25 37.5 39.8125 43.875 32.3125 45V34.3125H35.875L36.625 30H32.5V27.1875C32.5 26.0625 33.0625 24.9375 34.9375 24.9375H36.8125V21.1875C36.8125 21.1875 35.125 20.8125 33.4375 20.8125C30.0625 20.8125 27.8125 22.875 27.8125 26.625V30H24.0625V34.3125H27.8125V44.8125C20.6875 43.6875 15.25 37.5 15.25 30C15.25 21.75 22 15 30.25 15Z" fill="#67EAB3"/>
</g>
</svg>
