<svg xmlns="http://www.w3.org/2000/svg" width="1263" height="364" viewBox="0 0 1263 364" fill="none">
  <g opacity="0.6" filter="url(#filter0_bd_2775_9360)">
    <path d="M50.6333 228.994C37.0319 217.467 13.8772 233.797 4 243.402V326C4 342.569 17.4315 356 34 356H1228.73C1245.3 356 1258.73 342.569 1258.73 326V260.479C1259.21 -67.7587 1261.31 -0.505531 1238.38 19.1323C1209.72 43.6796 1210.36 127.253 1181.7 93.1002C1153.04 58.9474 1127.48 109.248 1111.94 73.4942C1096.4 37.7406 1061.56 -13.3957 1032.49 31.1634C1018.89 65.3162 989.129 194.308 957.069 243.402C925.008 292.497 931.323 270.618 897.806 294.632C864.288 318.645 823.484 253.541 812.797 246.604C802.11 239.667 794.824 248.205 777.336 260.479C759.849 272.753 759.849 276.488 738.475 301.569C717.101 326.65 610.719 304.771 572.83 294.632C534.94 284.492 551.456 274.353 520.367 253.542C489.278 232.73 499.479 218.855 464.504 176.164C429.529 133.473 427.586 135.073 411.07 121.2C371.353 87.8359 365.894 115.329 353.75 135.074C332.286 169.972 333.823 139.688 289.143 158.02C248.825 174.563 270.847 166.14 229.88 182.568C196.923 195.783 191.092 201.098 181.79 207.649C162.845 220.99 159.019 227.198 138.557 253.542C104.676 297.16 126.898 263.681 88.5229 260.479C50.1476 257.277 67.6351 243.402 50.6333 228.994Z" fill="url(#paint0_radial_2775_9360)"/>
    <path d="M4.5 326V243.614C9.42695 238.854 17.5572 232.503 26.1216 228.731C34.7978 224.91 43.7379 223.806 50.3101 229.375C56.4344 234.565 57.966 239.591 59.3728 244.206C59.8928 245.912 60.3956 247.562 61.107 249.144C62.4256 252.075 64.4472 254.652 68.5835 256.683C72.6896 258.701 78.8655 260.175 88.4814 260.977C97.9931 261.771 103.706 264.435 107.464 267.278C109.347 268.703 110.752 270.182 111.906 271.519C112.275 271.945 112.623 272.365 112.957 272.766C113.65 273.6 114.278 274.355 114.88 274.93C115.793 275.801 116.768 276.381 118.009 276.246C119.201 276.116 120.521 275.335 122.176 273.849C125.498 270.867 130.493 264.738 138.951 253.848C141.018 251.188 142.915 248.733 144.674 246.456C160.339 226.181 165.109 220.007 182.077 208.058C182.993 207.413 183.873 206.782 184.747 206.154C188.33 203.584 191.814 201.084 197.21 198.043C203.923 194.259 213.598 189.635 230.066 183.032C250.551 174.818 255.292 172.815 259.954 170.796C260.359 170.621 260.763 170.445 261.178 170.266C265.521 168.381 270.932 166.033 289.333 158.483C300.457 153.919 308.682 152.389 315.091 152.108C320.116 151.887 324.025 152.431 327.396 152.9C328.333 153.03 329.229 153.155 330.095 153.256C334.082 153.72 337.441 153.672 341.158 151.221C344.829 148.801 348.806 144.067 354.176 135.336C355.702 132.854 357.122 130.254 358.511 127.678C358.671 127.38 358.831 127.083 358.991 126.787C360.216 124.511 361.424 122.267 362.675 120.138C365.509 115.316 368.523 111.157 372.345 108.638C376.135 106.141 380.768 105.227 386.928 106.996C393.116 108.774 400.841 113.26 410.749 121.582C413.681 124.046 416.147 126.016 418.415 127.828C422.564 131.145 426.051 133.931 430.518 138.235C437.418 144.884 446.631 155.137 464.117 176.481C479.816 195.643 486.387 208.975 491.704 219.765C492.297 220.967 492.874 222.138 493.446 223.281C496.303 228.992 499.055 234.051 503.053 238.989C507.052 243.93 512.283 248.732 520.089 253.957C527.826 259.137 532.588 263.642 535.97 267.639C538.368 270.472 540.067 273.039 541.66 275.445C542.324 276.447 542.969 277.422 543.639 278.376C545.909 281.612 548.413 284.535 552.752 287.283C557.078 290.022 563.204 292.573 572.7 295.115C591.662 300.189 627.757 308.199 661.793 311.805C678.809 313.608 695.333 314.312 708.952 312.989C715.762 312.328 721.862 311.159 726.942 309.359C732.019 307.559 736.107 305.118 738.856 301.893C744.935 294.759 749.284 289.356 752.792 284.996C761.645 273.997 765.149 269.643 777.623 260.888C780.687 258.738 783.442 256.699 785.951 254.843C787.026 254.047 788.057 253.284 789.047 252.561C792.356 250.143 795.213 248.162 797.849 246.78C800.481 245.4 802.86 244.635 805.21 244.619C807.553 244.603 809.918 245.331 812.525 247.023C813.8 247.851 815.566 249.58 817.775 251.983C819.552 253.916 821.588 256.253 823.851 258.851C824.387 259.467 824.936 260.098 825.498 260.741C831.35 267.445 838.517 275.503 846.405 282.596C854.288 289.684 862.927 295.842 871.731 298.709C880.56 301.584 889.566 301.15 898.097 295.038C906.451 289.053 912.312 285.934 916.904 283.856C918.723 283.032 920.343 282.371 921.849 281.757C922.248 281.594 922.639 281.435 923.023 281.277C924.857 280.522 926.545 279.791 928.226 278.859C934.97 275.121 941.467 268.208 957.488 243.676C973.563 219.059 989.036 174.467 1002.18 131.827C1007.15 115.704 1011.79 99.8471 1016.01 85.4397C1017.37 80.7857 1018.68 76.2829 1019.96 71.9713C1025.15 54.3336 1029.55 39.9133 1032.94 31.3951C1040.15 20.3527 1047.65 15.3359 1055.04 14.4478C1062.45 13.5574 1069.88 16.7989 1076.97 22.5986C1091.16 34.2046 1103.72 55.8367 1111.48 73.6935C1115.4 82.7177 1120.02 86.447 1125.28 87.3315C1127.89 87.7691 1130.6 87.5012 1133.39 86.893C1136.01 86.3241 1138.72 85.4496 1141.49 84.5552L1142.05 84.3734C1148.02 82.4515 1154.3 80.5197 1160.85 81.154C1167.37 81.7851 1174.22 84.9666 1181.32 93.4216C1184.92 97.7161 1188.12 100.229 1191.03 101.208C1193.99 102.202 1196.6 101.598 1198.92 99.7984C1201.22 98.0222 1203.24 95.0858 1205.12 91.4043C1207 87.714 1208.76 83.2249 1210.51 78.2963C1211.69 74.992 1212.86 71.4917 1214.06 67.8945C1216.46 60.7335 1218.99 53.188 1221.93 46.0384C1226.34 35.2998 1231.64 25.5679 1238.71 19.512C1241.62 17.015 1244.13 13.774 1246.27 10.6867C1247.18 9.3798 1248.01 8.11186 1248.79 6.93532C1249.86 5.30181 1250.82 3.84452 1251.7 2.70387C1252.45 1.72385 1253.09 1.05078 1253.62 0.719615C1253.88 0.557715 1254.08 0.500247 1254.24 0.500002C1254.38 0.499778 1254.52 0.5467 1254.69 0.694164C1255.06 1.02176 1255.47 1.78693 1255.85 3.24798C1256.23 4.68181 1256.55 6.69389 1256.84 9.40444C1257.97 20.2539 1258.38 41.9757 1258.48 81.5328C1258.54 106.966 1258.47 139.758 1258.38 181.753C1258.33 205.056 1258.27 231.193 1258.23 260.478V326C1258.23 342.292 1245.02 355.5 1228.73 355.5H34C17.7076 355.5 4.5 342.292 4.5 326Z" stroke="#67EAB3"/>
  </g>
  <defs>
    <filter id="filter0_bd_2775_9360" x="-96" y="-100" width="1455" height="556" filterUnits="userSpaceOnUse" color-interpolation-filters="sRGB">
      <feFlood flood-opacity="0" result="BackgroundImageFix"/>
      <feGaussianBlur in="BackgroundImageFix" stdDeviation="50"/>
      <feComposite in2="SourceAlpha" operator="in" result="effect1_backgroundBlur_2775_9360"/>
      <feColorMatrix in="SourceAlpha" type="matrix" values="0 0 0 0 0 0 0 0 0 0 0 0 0 0 0 0 0 0 127 0" result="hardAlpha"/>
      <feOffset dy="4"/>
      <feGaussianBlur stdDeviation="2"/>
      <feComposite in2="hardAlpha" operator="out"/>
      <feColorMatrix type="matrix" values="0 0 0 0 0 0 0 0 0 0 0 0 0 0 0 0 0 0 0.25 0"/>
      <feBlend mode="normal" in2="effect1_backgroundBlur_2775_9360" result="effect2_dropShadow_2775_9360"/>
      <feBlend mode="normal" in="SourceGraphic" in2="effect2_dropShadow_2775_9360" result="shape"/>
    </filter>
    <radialGradient id="paint0_radial_2775_9360" cx="0" cy="0" r="1" gradientUnits="userSpaceOnUse" gradientTransform="translate(1876.04 -341.772) rotate(159.558) scale(1997.86 1045.65)">
      <stop stop-color="#9891AD"/>
      <stop offset="0.372508" stop-color="#538096"/>
      <stop offset="0.715298" stop-color="#131529"/>
    </radialGradient>
  </defs>
</svg>