<svg width="72" height="73" viewBox="0 0 72 73" fill="none" xmlns="http://www.w3.org/2000/svg">
<path d="M33 11.75C26.7868 11.75 21.75 16.7868 21.75 23C21.75 29.2132 26.7868 34.25 33 34.25C39.2132 34.25 44.25 29.2132 44.25 23C44.25 16.7868 39.2132 11.75 33 11.75Z" fill="#384151"/>
<path d="M21 40.25C14.7868 40.25 9.75 45.2868 9.75 51.5V55.0648C9.75 57.3245 11.3877 59.2512 13.6178 59.6154C26.4543 61.7111 39.5457 61.7111 52.3822 59.6154C54.6123 59.2512 56.25 57.3245 56.25 55.0648V51.5C56.25 45.2868 51.2132 40.25 45 40.25H43.9774C43.4239 40.25 42.8739 40.3375 42.3478 40.5093L39.7512 41.3572C35.3644 42.7896 30.6356 42.7896 26.2488 41.3572L23.6522 40.5093C23.1261 40.3375 22.5761 40.25 22.0226 40.25H21Z" fill="#384151"/>
<path d="M58.5 19.25C59.7426 19.25 60.75 20.2574 60.75 21.5V26.75H66C67.2426 26.75 68.25 27.7574 68.25 29C68.25 30.2426 67.2426 31.25 66 31.25H60.75V36.5C60.75 37.7426 59.7426 38.75 58.5 38.75C57.2574 38.75 56.25 37.7426 56.25 36.5V31.25H51C49.7574 31.25 48.75 30.2426 48.75 29C48.75 27.7574 49.7574 26.75 51 26.75H56.25V21.5C56.25 20.2574 57.2574 19.25 58.5 19.25Z" fill="#384151"/>
</svg>
