<svg xmlns="http://www.w3.org/2000/svg" width="26" height="26" viewBox="0 0 26 26" fill="none">
  <g filter="url(#filter0_i_1682_784)">
    <path fill-rule="evenodd" clip-rule="evenodd" d="M1.42969 3.38524C1.42969 2.86698 1.63556 2.36996 2.00203 2.00349C2.36849 1.63703 2.86552 1.43115 3.38377 1.43115H22.863C23.1198 1.43074 23.3742 1.48098 23.6116 1.579C23.849 1.67703 24.0647 1.82092 24.2464 2.00243C24.4281 2.18394 24.5722 2.3995 24.6705 2.63679C24.7688 2.87407 24.8193 3.12841 24.8192 3.38524V22.8644C24.8194 23.1213 24.7691 23.3757 24.6709 23.6131C24.5728 23.8505 24.4288 24.0662 24.2472 24.2479C24.0656 24.4296 23.85 24.5737 23.6126 24.672C23.3753 24.7703 23.1209 24.8208 22.864 24.8206H3.38377C3.12707 24.8206 2.87288 24.7701 2.63573 24.6718C2.39858 24.5735 2.18312 24.4295 2.00165 24.2479C1.82018 24.0664 1.67627 23.8508 1.57813 23.6136C1.47999 23.3764 1.42955 23.1222 1.42969 22.8655V3.38524ZM10.6877 10.3489H13.8548V11.9394C14.312 11.0251 15.4814 10.2022 17.2388 10.2022C20.608 10.2022 21.4064 12.0234 21.4064 15.3649V21.5546H17.9969V16.1261C17.9969 14.2231 17.5397 13.1493 16.3788 13.1493C14.7681 13.1493 14.0983 14.3071 14.0983 16.1261V21.5546H10.6877V10.3489ZM4.8403 21.409H8.25091V10.2022H4.8403V21.4079V21.409ZM8.7389 6.54707C8.74533 6.83909 8.69337 7.12946 8.58606 7.40112C8.47875 7.67279 8.31826 7.92028 8.11401 8.12909C7.90976 8.33789 7.66585 8.50379 7.39662 8.61705C7.12738 8.73031 6.83823 8.78865 6.54614 8.78865C6.25405 8.78865 5.9649 8.73031 5.69566 8.61705C5.42642 8.50379 5.18252 8.33789 4.97826 8.12909C4.77401 7.92028 4.61352 7.67279 4.50621 7.40112C4.39891 7.12946 4.34694 6.83909 4.35337 6.54707C4.36599 5.97387 4.60256 5.42841 5.01241 5.02749C5.42226 4.62656 5.9728 4.40206 6.54614 4.40206C7.11947 4.40206 7.67002 4.62656 8.07986 5.02749C8.48971 5.42841 8.72628 5.97387 8.7389 6.54707Z" fill="#485B7C"/>
  </g>
  <defs>
    <filter id="filter0_i_1682_784" x="0.367188" y="0.368164" width="25.5156" height="29.5156" filterUnits="userSpaceOnUse" color-interpolation-filters="sRGB">
      <feFlood flood-opacity="0" result="BackgroundImageFix"/>
      <feBlend mode="normal" in="SourceGraphic" in2="BackgroundImageFix" result="shape"/>
      <feColorMatrix in="SourceAlpha" type="matrix" values="0 0 0 0 0 0 0 0 0 0 0 0 0 0 0 0 0 0 127 0" result="hardAlpha"/>
      <feOffset dy="4"/>
      <feGaussianBlur stdDeviation="7.5"/>
      <feComposite in2="hardAlpha" operator="arithmetic" k2="-1" k3="1"/>
      <feColorMatrix type="matrix" values="0 0 0 0 0 0 0 0 0 0 0 0 0 0 0 0 0 0 0.2 0"/>
      <feBlend mode="normal" in2="shape" result="effect1_innerShadow_1682_784"/>
    </filter>
  </defs>
</svg>