<svg width="61" height="60" viewBox="0 0 61 60" fill="none" xmlns="http://www.w3.org/2000/svg">
<g id="linkedin">
<path id="linkedin_2" fill-rule="evenodd" clip-rule="evenodd" d="M0.75 30C0.75 13.4315 14.1815 0 30.75 0C47.3185 0 60.75 13.4315 60.75 30C60.75 46.5685 47.3185 60 30.75 60C14.1815 60 0.75 46.5685 0.75 30ZM16.125 24.9375V45H22.5V24.9375H16.125ZM15.75 18.5625C15.75 20.625 17.25 22.125 19.3125 22.125C21.375 22.125 22.875 20.625 22.875 18.5625C22.875 16.5 21.375 15 19.3125 15C17.4375 15 15.75 16.5 15.75 18.5625ZM39.375 45H45.375V32.625C45.375 26.4375 41.625 24.375 38.0625 24.375C34.875 24.375 32.625 26.4375 32.0625 27.75V24.9375H26.0625V45H32.4375V34.3125C32.4375 31.5 34.3125 30 36.1875 30C38.0625 30 39.375 30.9375 39.375 34.125V45Z" fill="#67EAB3"/>
</g>
</svg>
