<svg width="44" height="58" viewBox="0 0 44 58" fill="none" xmlns="http://www.w3.org/2000/svg">
<path fill-rule="evenodd" clip-rule="evenodd" d="M17.5982 4.93421C16.8557 5.04239 16.1285 5.23725 15.4315 5.51478C11.2818 7.16696 8.81997 11.4629 9.49247 15.8785L9.58559 16.4899C9.70098 17.2475 9.89993 17.99 10.1788 18.7038L12.9235 25.729C19.491 25.2824 26.0833 25.321 32.6466 25.845L37.135 26.2033C40.0392 26.4352 42.4107 28.6184 42.8815 31.4936C43.9666 38.1203 43.9666 44.8794 42.8815 51.5061C42.4107 54.3813 40.0392 56.5645 37.135 56.7964L32.6466 57.1547C25.5602 57.7204 18.4399 57.7204 11.3535 57.1547L6.86508 56.7964C3.96079 56.5645 1.58929 54.3813 1.11849 51.5061C0.0334192 44.8794 0.0334193 38.1203 1.11849 31.4936C1.58929 28.6184 3.96079 26.4352 6.86508 26.2033L8.23484 26.094L5.98734 20.3414C5.58754 19.318 5.30231 18.2536 5.13689 17.1674L5.04377 16.556C4.056 10.0705 7.67191 3.76067 13.7669 1.33397C14.7907 0.926328 15.8588 0.640127 16.9494 0.481231C23.4411 -0.464673 29.7275 3.19186 32.1148 9.30236L32.3399 9.87842C32.7397 10.9017 33.0249 11.9662 33.1903 13.0523L33.6143 15.8364C33.7391 16.6554 33.1763 17.4204 32.3573 17.5451L30.8744 17.771C30.0554 17.8957 29.2904 17.3329 29.1656 16.5139L28.7416 13.7299C28.6262 12.9723 28.4273 12.2298 28.1484 11.516L27.9233 10.9399C26.298 6.7797 22.018 4.2902 17.5982 4.93421ZM21.9999 36.9998C19.5147 36.9998 17.4999 39.0146 17.4999 41.4998C17.4999 43.9851 19.5147 45.9998 21.9999 45.9998C24.4852 45.9998 26.4999 43.9851 26.4999 41.4998C26.4999 39.0146 24.4852 36.9998 21.9999 36.9998Z" fill="#384151"/>
</svg>
