<svg xmlns="
http://www.w3.org/2000/svg"
width="1398" height="468" viewBox="0 0 1398 468" fill="none">
<g filter="url(#filter0_bd_87_3161)">
<path d="M70.4606 295.307C55.7429 281.449 30.6878 301.081 20 312.63V418C20 434.569 33.4315 448 50 448H1347.71C1364.27 448 1377.71 434.569 1377.71 418V333.16C1378.23 -61.4627 1380.5 19.3922 1355.69 43.0017C1324.68 72.5136 1325.37 172.989 1294.36 131.929C1263.34 90.8693 1235.69 151.343 1218.87 108.358C1202.05 65.3736 1164.35 3.89506 1132.9 57.4661C1118.18 98.5263 1085.98 253.606 1051.29 312.63C1016.6 371.653 1023.43 345.35 987.162 374.22C950.893 403.09 906.74 324.82 895.176 316.479C883.612 308.139 875.728 318.404 856.805 333.16C837.882 347.916 837.882 352.407 814.755 382.56C791.627 412.714 676.514 386.41 635.514 374.22C594.515 362.03 612.387 349.84 578.746 324.82C545.106 299.799 556.144 283.118 518.299 231.793C480.453 180.467 478.351 182.392 460.479 165.712C417.502 125.6 411.595 158.654 398.455 182.392C375.229 224.348 376.892 187.939 328.546 209.979C284.918 229.868 308.748 219.742 264.419 239.491C228.756 255.38 222.446 261.77 212.381 269.645C191.881 285.685 187.741 293.148 165.6 324.82C128.938 377.26 152.985 337.009 111.46 333.16C69.935 329.31 88.8577 312.63 70.4606 295.307Z" fill="url(#paint0_radial_87_3161)"/>
</g>
<defs>
<filter id="filter0_bd_87_3161" x="-10" y="-10" width="1418" height="488" filterUnits="userSpaceOnUse" color-interpolation-filters="sRGB">
<feFlood flood-opacity="0" result="BackgroundImageFix"/>
<feGaussianBlur in="BackgroundImageFix" stdDeviation="15"/>
<feComposite in2="SourceAlpha" operator="in" result="effect1_backgroundBlur_87_3161"/>
<feColorMatrix in="SourceAlpha" type="matrix" values="0 0 0 0 0 0 0 0 0 0 0 0 0 0 0 0 0 0 127 0" result="hardAlpha"/>
<feOffset/>
<feGaussianBlur stdDeviation="10"/>
<feComposite in2="hardAlpha" operator="out"/>
<feColorMatrix type="matrix" values="0 0 0 0 0 0 0 0 0 0 0 0 0 0 0 0 0 0 0.5 0"/>
<feBlend mode="normal" in2="effect1_backgroundBlur_87_3161" result="effect2_dropShadow_87_3161"/>
<feBlend mode="normal" in="SourceGraphic" in2="effect2_dropShadow_87_3161" result="shape"/>
</filter>
<radialGradient id="paint0_radial_87_3161" cx="0" cy="0" r="1" gradientUnits="userSpaceOnUse" gradientTransform="translate(2045.68 -390.895) rotate(157.504) scale(2192.52 1239.52)">
<stop stop-color="#9891AD"/>
<stop offset="0.372508" stop-color="#538096"/>
<stop offset="0.715298" stop-color="#131529"/>
</radialGradient>
</defs>
</svg>