<svg width="24" height="25" viewBox="0 0 24 25" fill="none" xmlns="http://www.w3.org/2000/svg">
<g id="Google Logo">
<rect width="24" height="24" transform="translate(0 0.5)" fill="white"/>
<g id="logo googleg 48dp">
<path id="Shape" fill-rule="evenodd" clip-rule="evenodd" d="M23.04 12.7615C23.04 11.946 22.9668 11.1619 22.8309 10.4092H12V14.8576H18.1891C17.9225 16.2951 17.1123 17.513 15.8943 18.3285V21.214H19.6109C21.7855 19.2119 23.04 16.2637 23.04 12.7615Z" fill="#4285F4"/>
<path id="Shape_2" fill-rule="evenodd" clip-rule="evenodd" d="M11.9995 24.0001C15.1045 24.0001 17.7077 22.9703 19.6104 21.2139L15.8938 18.3285C14.864 19.0185 13.5467 19.4262 11.9995 19.4262C9.00425 19.4262 6.46902 17.4032 5.5647 14.6851H1.72266V17.6646C3.61493 21.423 7.50402 24.0001 11.9995 24.0001Z" fill="#34A853"/>
<path id="Shape_3" fill-rule="evenodd" clip-rule="evenodd" d="M5.56523 14.685C5.33523 13.995 5.20455 13.2579 5.20455 12.5C5.20455 11.742 5.33523 11.005 5.56523 10.315V7.33545H1.72318C0.944318 8.88795 0.5 10.6443 0.5 12.5C0.5 14.3557 0.944318 16.112 1.72318 17.6645L5.56523 14.685Z" fill="#FBBC05"/>
<path id="Shape_4" fill-rule="evenodd" clip-rule="evenodd" d="M11.9995 5.57386C13.6879 5.57386 15.2038 6.15409 16.3956 7.29364L19.694 3.99523C17.7024 2.13955 15.0992 1 11.9995 1C7.50402 1 3.61493 3.57705 1.72266 7.33545L5.5647 10.315C6.46902 7.59682 9.00425 5.57386 11.9995 5.57386Z" fill="#EA4335"/>
</g>
</g>
</svg>
