<svg width="24" height="24" viewBox="0 0 24 24" fill="none" xmlns="http://www.w3.org/2000/svg">
<g id="Social Icons" clip-path="url(#clip0_4894_693)">
<path id="c" d="M24 12C24 5.37264 18.6274 0 12 0C5.37264 0 0 5.37264 0 12C0 17.6275 3.87456 22.3498 9.10128 23.6467V15.6672H6.62688V12H9.10128V10.4198C9.10128 6.33552 10.9498 4.4424 14.9597 4.4424C15.72 4.4424 17.0318 4.59168 17.5685 4.74048V8.06448C17.2853 8.03472 16.7933 8.01984 16.1822 8.01984C14.2147 8.01984 13.4544 8.76528 13.4544 10.703V12H17.3741L16.7006 15.6672H13.4544V23.9122C19.3963 23.1946 24.0005 18.1354 24.0005 12H24Z" fill="#0866FF"/>
<path id="d" d="M16.7007 15.6672L17.3742 12H13.4545V10.703C13.4545 8.76526 14.2148 8.01982 16.1823 8.01982C16.7934 8.01982 17.2854 8.0347 17.5686 8.06446V4.74046C17.0319 4.59118 15.7201 4.44238 14.9598 4.44238C10.9498 4.44238 9.10135 6.3355 9.10135 10.4198V12H6.62695V15.6672H9.10135V23.6467C10.0297 23.8771 11.0007 24 12.0001 24C12.4921 24 12.9774 23.9697 13.454 23.9121V15.6672H16.7002H16.7007Z" fill="white"/>
</g>
<defs>
<clipPath id="clip0_4894_693">
<rect width="24" height="24" fill="white"/>
</clipPath>
</defs>
</svg>
