<svg xmlns="http://www.w3.org/2000/svg" width="30" height="30" viewBox="0 0 30 30" fill="none">
  <g filter="url(#filter0_i_1682_369)">
    <path d="M9.40716 7.70312C7.44888 7.70313 5.5708 8.48105 4.18608 9.86577C2.80136 11.2505 2.02344 13.1286 2.02344 15.0868C2.02344 17.0451 2.80136 18.9232 4.18608 20.3079C5.5708 21.6926 7.44888 22.4706 9.40716 22.4706C11.3654 22.4706 13.2435 21.6926 14.6282 20.3079C16.013 18.9232 16.7909 17.0451 16.7909 15.0868C16.7909 13.1286 16.013 11.2505 14.6282 9.86577C13.2435 8.48105 11.3654 7.70313 9.40716 7.70312ZM21.0507 8.2711C19.0117 8.2711 17.3589 11.3229 17.3589 15.0868C17.3589 15.7928 17.4168 16.4733 17.5247 17.1134C17.6684 17.9671 17.9007 18.7486 18.2017 19.4222C18.3523 19.759 18.5198 20.0686 18.7021 20.3463C19.0668 20.9018 19.4905 21.3306 19.9528 21.5965C20.2999 21.7952 20.6685 21.9026 21.0507 21.9026C21.433 21.9026 21.8016 21.7952 22.1486 21.5965C22.611 21.3306 23.0347 20.9018 23.3993 20.3463C23.5816 20.0686 23.7492 19.759 23.8997 19.4222C24.2007 18.7492 24.433 17.9671 24.5767 17.1134C24.6847 16.4733 24.7426 15.7928 24.7426 15.0868C24.7426 11.3229 23.0898 8.2711 21.0507 8.2711ZM26.7305 8.83908C26.5834 8.83908 26.4414 8.93734 26.3085 9.12023C26.2193 9.24178 26.1341 9.40081 26.054 9.59336C26.0137 9.68935 25.9745 9.79385 25.937 9.90631C25.8615 10.1307 25.7911 10.3868 25.7269 10.6691C25.5985 11.2342 25.4946 11.9079 25.4225 12.6553C25.3867 13.0291 25.3588 13.4215 25.3395 13.8282C25.3202 14.2343 25.3106 14.6558 25.3106 15.0868C25.3106 15.5179 25.3202 15.9394 25.3395 16.3461C25.3583 16.7527 25.3861 17.1452 25.4225 17.5189C25.4946 18.2664 25.5985 18.9394 25.7269 19.5052C25.7911 19.788 25.8615 20.0436 25.937 20.268C25.9745 20.3804 26.0137 20.4849 26.054 20.5809C26.1347 20.7735 26.2199 20.9325 26.3085 21.054C26.4414 21.2364 26.5834 21.3346 26.7305 21.3346C27.5149 21.3346 28.1505 18.5373 28.1505 15.0868C28.1505 11.6364 27.5149 8.83908 26.7305 8.83908Z" fill="#485B7C"/>
  </g>
  <defs>
    <filter id="filter0_i_1682_369" x="0.886719" y="0.887207" width="28.3984" height="32.3989" filterUnits="userSpaceOnUse" color-interpolation-filters="sRGB">
      <feFlood flood-opacity="0" result="BackgroundImageFix"/>
      <feBlend mode="normal" in="SourceGraphic" in2="BackgroundImageFix" result="shape"/>
      <feColorMatrix in="SourceAlpha" type="matrix" values="0 0 0 0 0 0 0 0 0 0 0 0 0 0 0 0 0 0 127 0" result="hardAlpha"/>
      <feOffset dy="4"/>
      <feGaussianBlur stdDeviation="7.5"/>
      <feComposite in2="hardAlpha" operator="arithmetic" k2="-1" k3="1"/>
      <feColorMatrix type="matrix" values="0 0 0 0 0 0 0 0 0 0 0 0 0 0 0 0 0 0 0.2 0"/>
      <feBlend mode="normal" in2="shape" result="effect1_innerShadow_1682_369"/>
    </filter>
  </defs>
</svg>