<svg width="30" height="31" viewBox="0 0 30 31" fill="none" xmlns="http://www.w3.org/2000/svg">
<path id="shape" d="M10.3333 11.0316H19.6667M10.3333 11.0316V20.3649M10.3333 11.0316V6.36491C10.3333 3.78758 8.244 1.69824 5.66667 1.69824C3.08934 1.69824 1 3.78758 1 6.36491C1 8.94224 3.08934 11.0316 5.66667 11.0316H10.3333ZM19.6667 11.0316V20.3649M19.6667 11.0316H24.3333C26.9107 11.0316 29 8.94224 29 6.36491C29 3.78758 26.9107 1.69824 24.3333 1.69824C21.756 1.69824 19.6667 3.78758 19.6667 6.36491V11.0316ZM19.6667 20.3649H10.3333M19.6667 20.3649V25.0316C19.6667 27.6089 21.756 29.6982 24.3333 29.6982C26.9107 29.6982 29 27.6089 29 25.0316C29 22.4542 26.9107 20.3649 24.3333 20.3649H19.6667ZM10.3333 20.3649L5.66667 20.3649C3.08934 20.3649 1 22.4542 1 25.0316C1 27.6089 3.08934 29.6982 5.66667 29.6982C8.24399 29.6982 10.3333 27.6089 10.3333 25.0316V20.3649Z" stroke="#67EAB3" stroke-width="2"/>
</svg>
