<svg xmlns="http://www.w3.org/2000/svg" width="18" height="18" viewBox="0 0 18 18" fill="none">
  <path d="M3.28571 2C3.28571 1.44772 2.77404 1 2.14286 1C1.51167 1 1 1.44772 1 2C1 2.55228 1.51167 3 2.14286 3C2.77404 3 3.28571 2.55228 3.28571 2Z" fill="#EFEFEF"/>
  <path d="M3.28571 9C3.28571 8.44772 2.77404 8 2.14286 8C1.51167 8 1 8.44772 1 9C1 9.55229 1.51167 10 2.14286 10C2.77404 10 3.28571 9.55229 3.28571 9Z" fill="#EFEFEF"/>
  <path d="M3.28571 16C3.28571 15.4477 2.77404 15 2.14286 15C1.51167 15 1 15.4477 1 16C1 16.5523 1.51167 17 2.14286 17C2.77404 17 3.28571 16.5523 3.28571 16Z" fill="#EFEFEF"/>
  <path d="M3.28571 2C3.28571 1.44772 2.77404 1 2.14286 1C1.51167 1 1 1.44772 1 2C1 2.55228 1.51167 3 2.14286 3C2.77404 3 3.28571 2.55228 3.28571 2Z" stroke="#EFEFEF" stroke-width="2" stroke-linecap="round" strokeLinejoin="round"/>
  <path d="M3.28571 9C3.28571 8.44772 2.77404 8 2.14286 8C1.51167 8 1 8.44772 1 9C1 9.55229 1.51167 10 2.14286 10C2.77404 10 3.28571 9.55229 3.28571 9Z" stroke="#EFEFEF" stroke-width="2" stroke-linecap="round" strokeLinejoin="round"/>
  <path d="M3.28571 16C3.28571 15.4477 2.77404 15 2.14286 15C1.51167 15 1 15.4477 1 16C1 16.5523 1.51167 17 2.14286 17C2.77404 17 3.28571 16.5523 3.28571 16Z" stroke="#EFEFEF" stroke-width="2" stroke-linecap="round" strokeLinejoin="round"/>
  <path d="M10.1431 2C10.1431 1.44772 9.63146 1 9.00028 1C8.3691 1 7.85742 1.44772 7.85742 2C7.85742 2.55228 8.3691 3 9.00028 3C9.63146 3 10.1431 2.55228 10.1431 2Z" fill="#EFEFEF"/>
  <path d="M10.1431 9C10.1431 8.44772 9.63146 8 9.00028 8C8.3691 8 7.85742 8.44772 7.85742 9C7.85742 9.55229 8.3691 10 9.00028 10C9.63146 10 10.1431 9.55229 10.1431 9Z" fill="#EFEFEF"/>
  <path d="M10.1431 16C10.1431 15.4477 9.63146 15 9.00028 15C8.3691 15 7.85742 15.4477 7.85742 16C7.85742 16.5523 8.3691 17 9.00028 17C9.63146 17 10.1431 16.5523 10.1431 16Z" fill="#EFEFEF"/>
  <path d="M10.1431 2C10.1431 1.44772 9.63146 1 9.00028 1C8.3691 1 7.85742 1.44772 7.85742 2C7.85742 2.55228 8.3691 3 9.00028 3C9.63146 3 10.1431 2.55228 10.1431 2Z" stroke="#EFEFEF" stroke-width="1.5" stroke-linecap="round" strokeLinejoin="round"/>
  <path d="M10.1431 9C10.1431 8.44772 9.63146 8 9.00028 8C8.3691 8 7.85742 8.44772 7.85742 9C7.85742 9.55229 8.3691 10 9.00028 10C9.63146 10 10.1431 9.55229 10.1431 9Z" stroke="#EFEFEF" stroke-width="1.5" stroke-linecap="round" strokeLinejoin="round"/>
  <path d="M10.1431 16C10.1431 15.4477 9.63146 15 9.00028 15C8.3691 15 7.85742 15.4477 7.85742 16C7.85742 16.5523 8.3691 17 9.00028 17C9.63146 17 10.1431 16.5523 10.1431 16Z" stroke="#EFEFEF" stroke-width="1.5" stroke-linecap="round" strokeLinejoin="round"/>
  <path d="M17.0006 2C17.0006 1.44772 16.4889 1 15.8577 1C15.2265 1 14.7148 1.44772 14.7148 2C14.7148 2.55228 15.2265 3 15.8577 3C16.4889 3 17.0006 2.55228 17.0006 2Z" fill="#EFEFEF"/>
  <path d="M17.0006 9C17.0006 8.44772 16.4889 8 15.8577 8C15.2265 8 14.7148 8.44772 14.7148 9C14.7148 9.55229 15.2265 10 15.8577 10C16.4889 10 17.0006 9.55229 17.0006 9Z" fill="#EFEFEF"/>
  <path d="M17.0006 16C17.0006 15.4477 16.4889 15 15.8577 15C15.2265 15 14.7148 15.4477 14.7148 16C14.7148 16.5523 15.2265 17 15.8577 17C16.4889 17 17.0006 16.5523 17.0006 16Z" fill="#EFEFEF"/>
  <path d="M17.0006 2C17.0006 1.44772 16.4889 1 15.8577 1C15.2265 1 14.7148 1.44772 14.7148 2C14.7148 2.55228 15.2265 3 15.8577 3C16.4889 3 17.0006 2.55228 17.0006 2Z" stroke="#EFEFEF" stroke-width="1.5" stroke-linecap="round" strokeLinejoin="round"/>
  <path d="M17.0006 9C17.0006 8.44772 16.4889 8 15.8577 8C15.2265 8 14.7148 8.44772 14.7148 9C14.7148 9.55229 15.2265 10 15.8577 10C16.4889 10 17.0006 9.55229 17.0006 9Z" stroke="#EFEFEF" stroke-width="1.5" stroke-linecap="round" strokeLinejoin="round"/>
  <path d="M17.0006 16C17.0006 15.4477 16.4889 15 15.8577 15C15.2265 15 14.7148 15.4477 14.7148 16C14.7148 16.5523 15.2265 17 15.8577 17C16.4889 17 17.0006 16.5523 17.0006 16Z" stroke="#EFEFEF" stroke-width="1.5" stroke-linecap="round" strokeLinejoin="round"/>
</svg>