<svg width="35" height="40" viewBox="0 0 35 40" fill="none" xmlns="http://www.w3.org/2000/svg">
<path d="M19.5994 0.922396C10.8538 -1.07345 6.80546 0.628889 5.87451 1.72954L7.31084 15.3776C8.48118 14.1058 13.7424 11.0778 21.5943 12.9562C29.4462 14.8346 33.8031 13.2497 35 12.2224L32.4465 0.922396C31.8082 1.754 28.345 2.91825 19.5994 0.922396Z" fill="url(#paint0_linear_841_4907)"/>
<rect x="0.218561" y="0.181498" width="0.398719" height="29.6608" transform="matrix(0.996415 -0.0845939 0.0998994 0.994998 4.98265 0.110217)" fill="url(#paint1_linear_841_4907)" stroke="url(#paint2_linear_841_4907)" stroke-width="0.398719"/>
<circle cx="8" cy="32" r="8" fill="#FF9356"/>
<circle cx="8" cy="32" r="5" fill="#0F3A4D"/>
<defs>
<linearGradient id="paint0_linear_841_4907" x1="20.4373" y1="0" x2="20.4373" y2="15.3776" gradientUnits="userSpaceOnUse">
<stop stop-color="#FF5151"/>
<stop offset="1" stop-color="#FFD84C"/>
</linearGradient>
<linearGradient id="paint1_linear_841_4907" x1="0.398719" y1="0" x2="0.398719" y2="30.0596" gradientUnits="userSpaceOnUse">
<stop stop-color="#FF5151"/>
<stop offset="1" stop-color="#FFD84C"/>
</linearGradient>
<linearGradient id="paint2_linear_841_4907" x1="0.398719" y1="0" x2="0.398719" y2="30.0596" gradientUnits="userSpaceOnUse">
<stop stop-color="#FF5151"/>
<stop offset="1" stop-color="#FFD84C"/>
</linearGradient>
</defs>
</svg>
