<svg width="28" height="28" viewBox="0 0 28 28" fill="none" xmlns="http://www.w3.org/2000/svg">
<path d="M10.1318 12.4341L17.8645 8.56771M17.8682 19.4341L10.1428 15.5714M24.5 7C24.5 8.933 22.933 10.5 21 10.5C19.067 10.5 17.5 8.933 17.5 7C17.5 5.067 19.067 3.5 21 3.5C22.933 3.5 24.5 5.067 24.5 7ZM10.5 14C10.5 15.933 8.933 17.5 7 17.5C5.067 17.5 3.5 15.933 3.5 14C3.5 12.067 5.067 10.5 7 10.5C8.933 10.5 10.5 12.067 10.5 14ZM24.5 21C24.5 22.933 22.933 24.5 21 24.5C19.067 24.5 17.5 22.933 17.5 21C17.5 19.067 19.067 17.5 21 17.5C22.933 17.5 24.5 19.067 24.5 21Z" stroke="#0F3A4D" stroke-width="2"/>
</svg>
