<svg width="60" height="60" viewBox="0 0 60 60" fill="none" xmlns="http://www.w3.org/2000/svg">
<g id="telegram">
<path id="telegram_2" fill-rule="evenodd" clip-rule="evenodd" d="M30 60C13.4315 60 0 46.5685 0 30C0 13.4315 13.4315 0 30 0C46.5685 0 60 13.4315 60 30C60 46.5685 46.5685 60 30 60ZM31.2972 22.5138C28.6103 23.6314 23.2404 25.9445 15.1873 29.4531C13.8797 29.9731 13.1946 30.4818 13.1323 30.9793C13.0269 31.8199 14.0796 32.151 15.5133 32.6018C15.7083 32.6631 15.9103 32.7266 16.1175 32.794C17.5279 33.2524 19.4252 33.7888 20.4115 33.8101C21.3062 33.8295 22.3048 33.4606 23.4073 32.7036C30.9315 27.6245 34.8155 25.0573 35.0594 25.002C35.2314 24.9629 35.4698 24.9138 35.6313 25.0574C35.7929 25.2009 35.777 25.4728 35.7599 25.5458C35.6556 25.9904 31.5231 29.8324 29.3845 31.8206C28.7178 32.4404 28.2448 32.8801 28.1482 32.9805C27.9316 33.2054 27.7109 33.4182 27.4988 33.6227C26.1884 34.8859 25.2058 35.8331 27.5532 37.38C28.6812 38.1234 29.5839 38.7381 30.4844 39.3514C31.4679 40.0211 32.4488 40.6891 33.718 41.5211C34.0414 41.733 34.3502 41.9532 34.651 42.1676C35.7955 42.9836 36.8237 43.7166 38.0941 43.5997C38.8323 43.5318 39.5947 42.8377 39.982 40.7676C40.8971 35.8753 42.6959 25.2752 43.1117 20.9071C43.1481 20.5244 43.1023 20.0346 43.0655 19.8196C43.0287 19.6046 42.9518 19.2983 42.6723 19.0715C42.3413 18.803 41.8304 18.7463 41.6019 18.7502C40.5629 18.7687 38.9688 19.323 31.2972 22.5138Z" fill="#67EAB3"/>
</g>
</svg>
