<svg width="64" height="40" viewBox="0 0 64 40" fill="none" xmlns="http://www.w3.org/2000/svg">
  <g filter="url(#filter0_d_4944_7828)">
    <path d="M15.2444 29.6756H6C6 21.4311 10.3913 14.1845 17.0222 10.0293L21.8418 17.7109C17.8653 20.2828 15.2444 24.6814 15.2444 29.6756Z" fill="#435066"/>
    <path d="M54 29.6756H44.7556C44.7556 24.9969 42.4553 20.8409 38.8952 18.2198L44.1626 10.8215C50.1268 15.0699 54 21.9327 54 29.6756Z" fill="#435066"/>
    <path d="M30 6.32422C25.7382 6.32422 21.7358 7.40504 18.2667 9.30033L22.6182 17.2418C24.7894 16.0188 27.3107 15.3188 30 15.3188C33.0164 15.3188 35.8213 16.1994 38.1582 17.7109L42.9778 10.0293C39.2361 7.68461 34.7813 6.32422 30 6.32422Z" fill="#435066"/>
    <path d="M15.2444 29.6756H6C6 21.4311 10.3913 14.1845 17.0222 10.0293L21.8418 17.7109C17.8653 20.2828 15.2444 24.6814 15.2444 29.6756Z" fill="#67EAB3"/>
    <path d="M30 6.32422C25.7382 6.32422 21.7358 7.40504 18.2667 9.30033L22.6182 17.2418C24.7894 16.0188 27.3107 15.3188 30 15.3188C33.0164 15.3188 35.8213 16.1994 38.1582 17.7109L42.9778 10.0293C39.2361 7.68461 34.7813 6.32422 30 6.32422Z" fill="#67EAB3"/>
  </g>
  <defs>
    <filter id="filter0_d_4944_7828" x="0" y="0.324219" width="64" height="39.3516" filterUnits="userSpaceOnUse" color-interpolation-filters="sRGB">
      <feFlood flood-opacity="0" result="BackgroundImageFix"/>
      <feColorMatrix in="SourceAlpha" type="matrix" values="0 0 0 0 0 0 0 0 0 0 0 0 0 0 0 0 0 0 127 0" result="hardAlpha"/>
      <feOffset dx="2" dy="2"/>
      <feGaussianBlur stdDeviation="4"/>
      <feComposite in2="hardAlpha" operator="out"/>
      <feColorMatrix type="matrix" values="0 0 0 0 0 0 0 0 0 0 0 0 0 0 0 0 0 0 0.5 0"/>
      <feBlend mode="normal" in2="BackgroundImageFix" result="effect1_dropShadow_4944_7828"/>
      <feBlend mode="normal" in="SourceGraphic" in2="effect1_dropShadow_4944_7828" result="shape"/>
    </filter>
  </defs>
</svg>