<svg width="60" height="60" viewBox="0 0 60 60" fill="none" xmlns="http://www.w3.org/2000/svg">
<g id="whatsapp">
<path fill-rule="evenodd" clip-rule="evenodd" d="M23.625 40.6875C25.5 41.8125 27.75 42.375 30 42.375C36.9375 42.375 42.375 36.75 42.375 30.1875C42.375 26.8125 41.25 23.8125 38.8125 21.375C36.375 19.125 33.375 17.8125 30 17.8125C23.25 17.8125 17.625 23.4375 17.625 30.1875C17.625 32.4375 18.1875 34.6875 19.5 36.75L19.875 37.3125L18.5625 41.8125L23.25 40.5L23.625 40.6875ZM34.125 31.875C34.5 31.875 36.375 32.8125 36.75 33C36.8084 33.0292 36.8668 33.0538 36.9245 33.0782C37.2372 33.2102 37.5292 33.3335 37.6875 34.125C37.875 34.125 37.875 34.875 37.5 35.8125C37.3125 36.5625 35.8125 37.5 35.0625 37.5C34.9355 37.5 34.8138 37.5108 34.6838 37.5223C34.0466 37.5786 33.2099 37.6526 30.5625 36.5625C27.2766 35.2481 24.9985 32.0623 24.3587 31.1677C24.2684 31.0414 24.2107 30.9607 24.1875 30.9375C24.1556 30.8737 24.091 30.7718 24.0059 30.6374C23.5911 29.9824 22.6875 28.5558 22.6875 27C22.6875 25.125 23.625 24.1875 24 23.8125C24.375 23.4375 24.75 23.4375 24.9375 23.4375H25.6875C25.875 23.4375 26.25 23.4375 26.4375 24C26.8125 24.75 27.5625 26.625 27.5625 26.8125C27.5625 26.875 27.5834 26.9375 27.6042 27C27.6459 27.125 27.6875 27.25 27.5625 27.375C27.4688 27.4687 27.4219 27.5625 27.375 27.6562C27.3281 27.75 27.2813 27.8438 27.1875 27.9375L26.625 28.5C26.4375 28.6875 26.25 28.875 26.4375 29.25C26.625 29.625 27.375 30.9375 28.5 31.875C29.7659 32.9826 30.7646 33.4226 31.271 33.6456C31.3646 33.6869 31.4414 33.7207 31.5 33.75C31.875 33.75 32.0625 33.75 32.25 33.5625C32.3438 33.375 32.5781 33.0938 32.8125 32.8125C33.0469 32.5312 33.2812 32.25 33.375 32.0625C33.5625 31.6875 33.75 31.6875 34.125 31.875Z" fill="#67EAB3"/>
<path fill-rule="evenodd" clip-rule="evenodd" d="M0 30C0 13.4315 13.4315 0 30 0C46.5685 0 60 13.4315 60 30C60 46.5685 46.5685 60 30 60C13.4315 60 0 46.5685 0 30ZM30 15C33.9375 15 37.6875 16.5 40.5 19.3125C43.3125 22.125 45 25.875 45 29.8125C45 38.0625 38.25 44.8125 30 44.8125C27.5625 44.8125 25.125 44.0625 22.875 42.9375L15 45L17.0625 37.5C15.75 35.25 15 32.625 15 30C15 21.75 21.75 15 30 15Z" fill="#67EAB3"/>
</g>
</svg>
