<svg xmlns="http://www.w3.org/2000/svg" width="30" height="30" viewBox="0 0 30 30" fill="none">
  <g filter="url(#filter0_i_1076_3383)">
    <path d="M15.0861 3.72693C8.81281 3.72693 3.72656 8.81318 3.72656 15.0865C3.72656 17.2176 4.32516 19.2044 5.34619 20.9087L3.82825 26.4461L9.484 24.9614C11.1381 25.9018 13.0476 26.4461 15.0861 26.4461C21.3595 26.4461 26.4457 21.3598 26.4457 15.0865C26.4457 8.81318 21.3595 3.72693 15.0861 3.72693ZM11.1979 9.78759C11.3825 9.78759 11.5722 9.78646 11.736 9.79498C11.9385 9.79972 12.159 9.81455 12.3701 10.2812C12.621 10.836 13.1672 12.2276 13.2372 12.3686C13.3073 12.5097 13.3569 12.6758 13.2594 12.8604C13.1667 13.0498 13.1184 13.1644 12.9821 13.3319C12.8411 13.4947 12.6865 13.697 12.5587 13.82C12.4177 13.9611 12.272 14.1157 12.4348 14.3969C12.5977 14.678 13.1631 15.5997 13.999 16.3437C15.0734 17.3036 15.9799 17.5986 16.262 17.7397C16.5441 17.8807 16.7075 17.8587 16.8703 17.6694C17.0379 17.4848 17.574 16.8514 17.7633 16.5693C17.9479 16.2872 18.1364 16.336 18.392 16.4288C18.6513 16.5216 20.0345 17.2029 20.3166 17.344C20.5987 17.485 20.7837 17.5549 20.8547 17.6694C20.9276 17.7877 20.9276 18.351 20.6938 19.008C20.46 19.664 19.3118 20.2984 18.7969 20.3429C18.2772 20.3912 17.7921 20.5765 15.4189 19.6422C12.5563 18.5147 10.751 15.5827 10.61 15.3934C10.4689 15.2088 9.46367 13.869 9.46367 12.487C9.46367 11.1002 10.1908 10.421 10.4454 10.1389C10.7048 9.85678 11.0086 9.78759 11.1979 9.78759Z" fill="#485B7C"/>
  </g>
  <defs>
    <filter id="filter0_i_1076_3383" x="0.886719" y="0.887085" width="28.3994" height="32.3989" filterUnits="userSpaceOnUse" color-interpolation-filters="sRGB">
      <feFlood flood-opacity="0" result="BackgroundImageFix"/>
      <feBlend mode="normal" in="SourceGraphic" in2="BackgroundImageFix" result="shape"/>
      <feColorMatrix in="SourceAlpha" type="matrix" values="0 0 0 0 0 0 0 0 0 0 0 0 0 0 0 0 0 0 127 0" result="hardAlpha"/>
      <feOffset dy="4"/>
      <feGaussianBlur stdDeviation="7.5"/>
      <feComposite in2="hardAlpha" operator="arithmetic" k2="-1" k3="1"/>
      <feColorMatrix type="matrix" values="0 0 0 0 0 0 0 0 0 0 0 0 0 0 0 0 0 0 0.2 0"/>
      <feBlend mode="normal" in2="shape" result="effect1_innerShadow_1076_3383"/>
    </filter>
  </defs>
</svg>